<svg xmlns="http://www.w3.org/2000/svg" width="240" height="240" viewBox="0 0 240 240"><g><path fill="#3498DB" d="M26.61 68.58c.51 0 .93-.1 1.38-.37.43-.25.74-.56.99-.99l.02-.04 89.74 51.81c-.27.43-.38.85-.38 1.36 0 .5.11.91.37 1.35l-89.8 51.859c-.24-.409-.54-.699-.96-.93-.43-.25-.86-.37-1.36-.37h-.04l-.02-103.679h.06z"/><path fill="#2ECC71" d="M119.74 122.72c.43.261.84.37 1.35.37v103.72c-.5.011-.91.131-1.35.37-.43.25-.74.561-.99 1.011l-89.75-51.851c.24-.43.35-.84.35-1.34s-.12-.93-.37-1.36l-.05-.08 89.8-51.859.01.03c.24.429.55.739 1 .989z"/><path fill="#F39C12" d="M121.09 123.09h.01c.511 0 .931-.109 1.381-.37.43-.25.739-.56.989-.989l.011-.011 89.789 51.851-.029.05c-.26.43-.37.85-.37 1.36 0 .489.1.89.34 1.319l-89.76 51.84c-.24-.42-.54-.72-.97-.96-.431-.239-.87-.37-1.36-.37h-.03v-103.72z"/><path fill="#8E44AD" d="M215.61 68.57l-.021 103.67c-.5 0-.92.109-1.359.38-.41.229-.711.53-.961.95l-89.789-51.85c.25-.45.359-.86.359-1.37 0-.51-.109-.93-.37-1.36l-.01-.02 89.771-51.83.029.05c.24.45.55.76 1 1.01.431.24.861.37 1.351.37z"/><path fill="#C0392B" d="M123.46 12.63l89.8 51.82c-.25.45-.38.87-.38 1.38 0 .48.12.9.351 1.31l-89.771 51.83c-.25-.44-.56-.74-.979-.98-.45-.27-.87-.38-1.381-.38h-.01v-103.6l.17-.01c.51-.03.931-.17 1.34-.45.37-.25.64-.54.86-.92z"/><path fill="#2C3E50" d="M118.81 12.78c.28.42.61.71 1.06.93.39.2.78.3 1.22.3v103.6c-.51 0-.92.11-1.35.38-.45.24-.76.55-1 1l-89.74-51.81c.25-.43.35-.84.35-1.33 0-.51-.11-.93-.37-1.37l-.04-.06 89.78-51.81.09.17z"/><path fill="#fff" d="M121.07 11.25l-2.35 1.36c-.22-.38-.33-.74-.36-1.18-.03-.51.07-.94.28-1.39.24-.45.53-.79.95-1.07.41-.28.83-.41 1.34-.45.5-.01.95.07 1.39.3.449.21.779.51 1.06.94.271.42.41.84.45 1.35.03.49-.07.93-.28 1.37l-.09.15-2.34-1.35h-.03v-.03h-.02zM212.87 174.98c0-.511.11-.931.37-1.36l.029-.05 2.32 1.34v.01l-2.38 1.38c-.239-.43-.339-.83-.339-1.32zM28.69 67l-2.11-1.22 2.36-1.36.04.06c.26.44.37.86.37 1.37 0 .49-.1.9-.35 1.33l-.31-.18zM25.24 172.63c.44-.24.84-.36 1.33-.37v2.6799999999999997l2.42 1.399-.01.03c-.25.439-.56.75-1.01 1.01-.43.25-.86.36-1.36.36-.51 0-.92-.11-1.37-.36-.44-.26-.75-.57-.99-1.01-.27-.44-.37-.86-.37-1.37 0-.5.1-.93.35-1.36.26-.449.57-.759 1.01-1.009zM214.23 177.35c-.431-.25-.74-.56-.99-.989l-.03-.061 2.38-1.38v-2.6799999999999997h.021c.51 0 .93.109 1.359.38.45.24.761.55 1 1 .271.43.37.85.37 1.36 0 .51-.1.93-.37 1.38-.239.43-.55.739-1 .989-.43.261-.85.37-1.359.37-.511.001-.931-.109-1.381-.369zM25.25 63.48c.44-.26.85-.37 1.36-.37.51 0 .93.11 1.38.37.41.24.71.53.95.94l-2.36 1.36-.03.02v2.78c-.48-.01-.88-.11-1.3-.37-.45-.25-.76-.56-1-.99-.27-.45-.37-.86-.37-1.37 0-.51.1-.93.37-1.37.24-.44.55-.75 1-1zM27.99 68.21c-.45.27-.87.37-1.38.37h-.06v-2.78l.03-.02 2.11 1.22.31.18-.02.04c-.25.43-.56.74-.99.99zM121.09 120.34l-2.35-1.35c.24-.45.55-.76 1-1 .43-.27.84-.38 1.35-.38v2.73zM118.73 121.7l2.36-1.36v2.75c-.51 0-.92-.109-1.35-.37-.45-.25-.76-.56-1-.989l-.01-.031zM119.74 231.93c-.43-.26-.74-.569-.99-1-.26-.449-.37-.87-.37-1.38 0-.49.11-.93.37-1.359l2.31 1.329.04-.029 2.351-1.351.03.051c.25.43.38.869.38 1.359 0 .51-.13.931-.38 1.38-.24.431-.551.74-1 1-.431.25-.87.36-1.36.36-.511 0-.931-.11-1.381-.36zM26.58 174.91l2.35-1.351.05.08c.25.431.37.86.37 1.36s-.11.91-.35 1.34h-.01l-2.42-1.399v-.03h.01zM121.09 120.34l-2.36 1.36c-.26-.44-.37-.85-.37-1.35 0-.51.11-.93.38-1.36l2.35 1.35zM121.09 120.34l2.37-1.37.01.02c.261.43.37.85.37 1.36 0 .51-.109.919-.359 1.37l-.32-.18-.87-.51-1.201-.69zM215.59 172.24v2.67l-2.32-1.34c.25-.42.551-.721.961-.95.439-.27.859-.38 1.359-.38zM121.09 11.28h.03l2.34 1.35c-.22.38-.49.67-.86.92-.409.28-.83.42-1.34.45l-.17.01v-2.73zM215.58 65.78l-2.32-1.33c.24-.43.55-.74 1-.99.431-.26.87-.37 1.36-.37.51 0 .93.11 1.38.37.43.25.74.56 1 .99.25.45.36.87.36 1.38 0 .5-.11.93-.36 1.36-.26.45-.57.76-1 1.01-.45.24-.87.37-1.38.37h-.01v-2.77l-.03-.02zM119.74 227.18c.44-.239.85-.359 1.35-.37v2.66l.01.021-.04.029-2.31-1.329c.25-.451.56-.761.99-1.011zM213.23 67.14l2.35-1.36.03.02v2.77c-.49 0-.92-.13-1.351-.37-.45-.25-.76-.56-1-1.01l-.029-.05zM121.1 117.61c.511 0 .931.11 1.381.38.42.24.729.54.979.98l-2.37 1.37v-2.73h.01zM123.45 228.14l-2.351 1.351-.01-.021v-2.66h.03c.49 0 .93.131 1.36.37.431.24.731.54.971.96zM26.61 172.26c.5 0 .93.12 1.36.37.42.23.72.521.96.93l-2.35 1.351h-.01v-2.65l.04-.001zM118.81 12.78l-.09-.17 2.35-1.36h.02v2.76c-.44 0-.83-.1-1.22-.3-.45-.22-.78-.51-1.06-.93zM215.58 65.78l-2.35 1.36c-.23-.41-.351-.83-.351-1.31 0-.51.13-.93.38-1.38l2.321 1.33zM121.1 123.09h-.01v-2.75l1.2.69.87.51.32.18-.011.011c-.25.43-.56.739-.989.989-.45.26-.87.37-1.38.37z"/><g stroke-miterlimit="10" fill="none"><path stroke="#B5B5B7" stroke-width="2.013" d="M29 67.18l89.74 51.81M28.93 173.56l89.8-51.86M121.09 226.81v-103.72M213.27 173.57l-89.79-51.85M213.23 67.14l-89.77 51.83M121.09 14.01v103.6"/><path stroke="#B5B5B7" stroke-width="2.013" d="M123.48 121.72l-.011.011c-.25.43-.56.739-.989.989-.45.261-.87.37-1.381.37h-.01c-.51 0-.92-.109-1.35-.37-.45-.25-.76-.56-1-.989l-.01-.03c-.26-.44-.37-.85-.37-1.35 0-.51.11-.93.38-1.36.24-.45.55-.76 1-1 .43-.27.84-.38 1.35-.38h.01c.511 0 .931.11 1.381.38.42.24.729.54.979.98l.01.02c.261.43.37.85.37 1.36.001.509-.109.919-.359 1.369z"/><path stroke="#000" stroke-width="3.997" d="M28.94 64.42l89.78-51.81M26.57 172.26l-.02-103.68M118.75 228.19l-89.75-51.85M213.21 176.3l-89.76 51.84M215.61 68.57l-.02 103.67M123.46 12.63l89.8 51.82"/><path stroke="#000" stroke-width="2.013" d="M118.72 12.61c-.22-.38-.33-.74-.36-1.18-.03-.51.07-.94.28-1.39.24-.45.53-.79.95-1.07.41-.28.83-.41 1.34-.45.5-.01.95.07 1.39.3.449.21.779.51 1.06.94.271.42.41.84.45 1.35.03.49-.07.93-.28 1.37l-.09.15c-.22.38-.49.67-.86.92-.409.28-.83.42-1.34.45l-.17.01c-.44 0-.83-.1-1.22-.3-.45-.22-.78-.51-1.06-.93l-.09-.17zM213.26 64.45c.24-.43.55-.74 1-.99.431-.26.87-.37 1.36-.37.51 0 .93.11 1.38.37.43.25.74.56 1 .99.25.45.36.87.36 1.38 0 .5-.11.93-.36 1.36-.26.45-.57.76-1 1.01-.45.24-.87.37-1.38.37h-.01c-.49 0-.92-.13-1.351-.37-.45-.25-.76-.56-1-1.01l-.029-.05c-.23-.41-.351-.83-.351-1.31.001-.51.131-.93.381-1.38zM215.59 172.24h.021c.51 0 .93.109 1.359.38.45.24.761.55 1 1 .271.43.37.85.37 1.36 0 .51-.1.93-.37 1.38-.239.43-.55.739-1 .989-.43.261-.85.37-1.359.37-.511 0-.931-.109-1.38-.37-.431-.25-.74-.56-.99-.989l-.03-.061c-.24-.43-.34-.83-.34-1.319 0-.511.11-.931.37-1.36l.029-.05c.25-.42.551-.721.961-.95.439-.27.859-.38 1.359-.38zM123.45 228.14l.03.051c.25.43.38.869.38 1.359 0 .51-.13.931-.38 1.38-.24.431-.551.74-1 1-.431.25-.87.36-1.36.36-.51 0-.93-.11-1.38-.36-.43-.26-.74-.569-.99-1-.26-.449-.37-.87-.37-1.38 0-.49.11-.93.37-1.359.25-.45.56-.761.99-1.011.44-.239.85-.359 1.35-.37h.03c.49 0 .93.131 1.36.37.43.24.73.54.97.96zM28.99 176.34l-.01.03c-.25.439-.56.75-1.01 1.01-.43.25-.86.36-1.36.36-.51 0-.92-.11-1.37-.36-.44-.26-.75-.57-.99-1.01-.27-.44-.37-.86-.37-1.37 0-.5.1-.93.35-1.36.26-.449.57-.76 1.01-1.01.44-.24.84-.36 1.33-.37h.04c.5 0 .93.12 1.36.37.42.23.72.521.96.93l.05.08c.25.431.37.86.37 1.36s-.11.91-.35 1.34h-.01zM29 67.18l-.02.04c-.25.43-.56.74-.99.99-.45.27-.87.37-1.38.37h-.06c-.48-.01-.88-.11-1.3-.37-.45-.25-.76-.56-1-.99-.27-.45-.37-.86-.37-1.37 0-.51.1-.93.37-1.37.24-.44.55-.75 1-1 .44-.26.85-.37 1.36-.37.51 0 .93.11 1.38.37.41.24.71.53.95.94l.04.06c.26.44.37.86.37 1.37 0 .49-.1.9-.35 1.33z"/></g></g></svg>