<?xml version="1.0" encoding="utf-8"?>
<!-- Generator: Adobe Illustrator 16.0.0, SVG Export Plug-In . SVG Version: 6.00 Build 0)  -->
<!DOCTYPE svg PUBLIC "-//W3C//DTD SVG 1.1//EN" "http://www.w3.org/Graphics/SVG/1.1/DTD/svg11.dtd">
<svg version="1.1" xmlns="http://www.w3.org/2000/svg" xmlns:xlink="http://www.w3.org/1999/xlink" x="0px" y="0px" width="240px"
	 height="240px" viewBox="0 0 240 240" enable-background="new 0 0 240 240" xml:space="preserve">
<g id="Layer_1">
	<g id="XMLID_1_">
		<g>
			<path fill="#3498DB" d="M26.61,68.58c0.51,0,0.93-0.1,1.38-0.37c0.43-0.25,0.74-0.56,0.99-0.99c0.01-0.01,0.02-0.03,0.02-0.04
				l89.74,51.81c-0.27,0.43-0.38,0.85-0.38,1.36c0,0.5,0.11,0.91,0.37,1.35l-89.8,51.859c-0.24-0.409-0.54-0.699-0.96-0.93
				c-0.43-0.25-0.86-0.37-1.36-0.37c-0.01,0-0.03,0-0.04,0L26.55,68.58C26.57,68.58,26.59,68.58,26.61,68.58z"/>
			<path fill="#2ECC71" d="M119.74,122.72c0.43,0.261,0.84,0.37,1.35,0.37v103.72c-0.5,0.011-0.91,0.131-1.35,0.37
				c-0.43,0.25-0.74,0.561-0.99,1.011L29,176.34c0.24-0.43,0.35-0.84,0.35-1.34s-0.12-0.93-0.37-1.36
				c-0.02-0.029-0.03-0.05-0.05-0.08l89.8-51.859c0,0.01,0,0.02,0.01,0.03C118.98,122.16,119.29,122.47,119.74,122.72z"/>
			<path fill="#F39C12" d="M121.09,123.09h0.01c0.511,0,0.931-0.109,1.381-0.37c0.43-0.25,0.739-0.56,0.989-0.989
				c0,0,0-0.011,0.011-0.011l89.789,51.851c-0.01,0.01-0.02,0.029-0.029,0.05c-0.26,0.43-0.37,0.85-0.37,1.36
				c0,0.489,0.1,0.89,0.34,1.319l-89.76,51.84c-0.24-0.42-0.54-0.72-0.97-0.96c-0.431-0.239-0.87-0.37-1.36-0.37
				c-0.01,0-0.021,0-0.03,0V123.09z"/>
			<path fill="#8E44AD" d="M215.61,68.57l-0.021,103.67c-0.5,0-0.92,0.109-1.359,0.38c-0.41,0.229-0.711,0.53-0.961,0.95
				L123.48,121.72c0.25-0.45,0.359-0.86,0.359-1.37c0-0.51-0.109-0.93-0.37-1.36c0-0.01-0.01-0.01-0.01-0.02l89.771-51.83
				c0.01,0.02,0.02,0.03,0.029,0.05c0.24,0.45,0.55,0.76,1,1.01C214.69,68.44,215.12,68.57,215.61,68.57z"/>
			<path fill="#C0392B" d="M123.46,12.63l89.8,51.82c-0.25,0.45-0.38,0.87-0.38,1.38c0,0.48,0.12,0.9,0.351,1.31l-89.771,51.83
				c-0.25-0.44-0.56-0.74-0.979-0.98c-0.45-0.27-0.87-0.38-1.381-0.38h-0.01V14.01c0.061,0,0.11-0.01,0.17-0.01
				c0.51-0.03,0.931-0.17,1.34-0.45C122.97,13.3,123.24,13.01,123.46,12.63z"/>
			<path fill="#2C3E50" d="M118.81,12.78c0.28,0.42,0.61,0.71,1.06,0.93c0.39,0.2,0.78,0.3,1.22,0.3v103.6
				c-0.51,0-0.92,0.11-1.35,0.38c-0.45,0.24-0.76,0.55-1,1L29,67.18c0.25-0.43,0.35-0.84,0.35-1.33c0-0.51-0.11-0.93-0.37-1.37
				c-0.01-0.02-0.02-0.04-0.04-0.06l89.78-51.81C118.74,12.67,118.77,12.72,118.81,12.78z"/>
			<path fill="#FFFFFF" d="M121.07,11.25l-2.35,1.36c-0.22-0.38-0.33-0.74-0.36-1.18c-0.03-0.51,0.07-0.94,0.28-1.39
				c0.24-0.45,0.53-0.79,0.95-1.07c0.41-0.28,0.83-0.41,1.34-0.45c0.5-0.01,0.95,0.07,1.39,0.3c0.449,0.21,0.779,0.51,1.06,0.94
				c0.271,0.42,0.41,0.84,0.45,1.35c0.03,0.49-0.07,0.93-0.28,1.37c-0.03,0.05-0.06,0.1-0.09,0.15l-2.34-1.35h-0.03v-0.03H121.07z"
				/>
			<path fill="#FFFFFF" d="M212.87,174.98c0-0.511,0.11-0.931,0.37-1.36c0.01-0.021,0.02-0.04,0.029-0.05l2.32,1.34v0.01l-2.38,1.38
				C212.97,175.87,212.87,175.47,212.87,174.98z"/>
			<path fill="#FFFFFF" d="M28.69,67l-2.11-1.22l2.36-1.36c0.02,0.02,0.03,0.04,0.04,0.06c0.26,0.44,0.37,0.86,0.37,1.37
				c0,0.49-0.1,0.9-0.35,1.33L28.69,67z"/>
			<path fill="#FFFFFF" d="M25.24,172.63c0.44-0.24,0.84-0.36,1.33-0.37v2.65v0.03l2.42,1.399c0,0.01,0,0.021-0.01,0.03
				c-0.25,0.439-0.56,0.75-1.01,1.01c-0.43,0.25-0.86,0.36-1.36,0.36c-0.51,0-0.92-0.11-1.37-0.36c-0.44-0.26-0.75-0.57-0.99-1.01
				c-0.27-0.44-0.37-0.86-0.37-1.37c0-0.5,0.1-0.93,0.35-1.36C24.49,173.19,24.8,172.88,25.24,172.63z"/>
			<path fill="#FFFFFF" d="M214.23,177.35c-0.431-0.25-0.74-0.56-0.99-0.989c-0.01-0.021-0.021-0.04-0.03-0.061l2.38-1.38v-0.01
				v-2.67c0.01,0,0.01,0,0.021,0c0.51,0,0.93,0.109,1.359,0.38c0.45,0.24,0.761,0.55,1,1c0.271,0.43,0.37,0.85,0.37,1.36
				c0,0.51-0.1,0.93-0.37,1.38c-0.239,0.43-0.55,0.739-1,0.989c-0.43,0.261-0.85,0.37-1.359,0.37
				C215.1,177.72,214.68,177.61,214.23,177.35z"/>
			<path fill="#FFFFFF" d="M25.25,63.48c0.44-0.26,0.85-0.37,1.36-0.37c0.51,0,0.93,0.11,1.38,0.37c0.41,0.24,0.71,0.53,0.95,0.94
				l-2.36,1.36l-0.03,0.02v2.78c-0.48-0.01-0.88-0.11-1.3-0.37c-0.45-0.25-0.76-0.56-1-0.99c-0.27-0.45-0.37-0.86-0.37-1.37
				c0-0.51,0.1-0.93,0.37-1.37C24.49,64.04,24.8,63.73,25.25,63.48z"/>
			<path fill="#FFFFFF" d="M27.99,68.21c-0.45,0.27-0.87,0.37-1.38,0.37c-0.02,0-0.04,0-0.06,0V65.8l0.03-0.02L28.69,67L29,67.18
				c0,0.01-0.01,0.03-0.02,0.04C28.73,67.65,28.42,67.96,27.99,68.21z"/>
			<path fill="#FFFFFF" d="M121.09,120.34l-2.35-1.35c0.24-0.45,0.55-0.76,1-1c0.43-0.27,0.84-0.38,1.35-0.38V120.34z"/>
			<path fill="#FFFFFF" d="M118.73,121.7l2.36-1.36v2.75c-0.51,0-0.92-0.109-1.35-0.37c-0.45-0.25-0.76-0.56-1-0.989
				C118.73,121.72,118.73,121.71,118.73,121.7z"/>
			<path fill="#FFFFFF" d="M119.74,231.93c-0.43-0.26-0.74-0.569-0.99-1c-0.26-0.449-0.37-0.87-0.37-1.38
				c0-0.49,0.11-0.93,0.37-1.359l2.31,1.329l0.04-0.029l2.351-1.351c0.01,0.011,0.02,0.03,0.03,0.051
				c0.25,0.43,0.38,0.869,0.38,1.359c0,0.51-0.13,0.931-0.38,1.38c-0.24,0.431-0.551,0.74-1,1c-0.431,0.25-0.87,0.36-1.36,0.36
				C120.61,232.29,120.19,232.18,119.74,231.93z"/>
			<path fill="#FFFFFF" d="M26.58,174.91l2.35-1.351c0.02,0.03,0.03,0.051,0.05,0.08c0.25,0.431,0.37,0.86,0.37,1.36
				s-0.11,0.91-0.35,1.34h-0.01l-2.42-1.399v-0.03H26.58z"/>
			<path fill="#FFFFFF" d="M121.09,120.34l-2.36,1.36c-0.26-0.44-0.37-0.85-0.37-1.35c0-0.51,0.11-0.93,0.38-1.36L121.09,120.34z"/>
			<path fill="#FFFFFF" d="M121.09,120.34l2.37-1.37c0,0.01,0.01,0.01,0.01,0.02c0.261,0.43,0.37,0.85,0.37,1.36
				c0,0.51-0.109,0.919-0.359,1.37l-0.32-0.18l-0.87-0.51L121.09,120.34z"/>
			<path fill="#FFFFFF" d="M215.59,172.24v2.67l-2.32-1.34c0.25-0.42,0.551-0.721,0.961-0.95
				C214.67,172.35,215.09,172.24,215.59,172.24z"/>
			<path fill="#FFFFFF" d="M121.09,11.28h0.03l2.34,1.35c-0.22,0.38-0.49,0.67-0.86,0.92c-0.409,0.28-0.83,0.42-1.34,0.45
				c-0.06,0-0.109,0.01-0.17,0.01V11.28z"/>
			<path fill="#FFFFFF" d="M215.58,65.78l-2.32-1.33c0.24-0.43,0.55-0.74,1-0.99c0.431-0.26,0.87-0.37,1.36-0.37
				c0.51,0,0.93,0.11,1.38,0.37c0.43,0.25,0.74,0.56,1,0.99c0.25,0.45,0.36,0.87,0.36,1.38c0,0.5-0.11,0.93-0.36,1.36
				c-0.26,0.45-0.57,0.76-1,1.01c-0.45,0.24-0.87,0.37-1.38,0.37h-0.01V65.8L215.58,65.78z"/>
			<path fill="#FFFFFF" d="M119.74,227.18c0.44-0.239,0.85-0.359,1.35-0.37v2.66l0.01,0.021l-0.04,0.029l-2.31-1.329
				C119,227.74,119.31,227.43,119.74,227.18z"/>
			<path fill="#FFFFFF" d="M213.23,67.14l2.35-1.36l0.03,0.02v2.77c-0.49,0-0.92-0.13-1.351-0.37c-0.45-0.25-0.76-0.56-1-1.01
				C213.25,67.17,213.24,67.16,213.23,67.14z"/>
			<path fill="#FFFFFF" d="M121.1,117.61c0.511,0,0.931,0.11,1.381,0.38c0.42,0.24,0.729,0.54,0.979,0.98l-2.37,1.37v-2.73H121.1z"
				/>
			<path fill="#FFFFFF" d="M123.45,228.14l-2.351,1.351l-0.01-0.021v-2.66c0.01,0,0.021,0,0.03,0c0.49,0,0.93,0.131,1.36,0.37
				C122.91,227.42,123.21,227.72,123.45,228.14z"/>
			<path fill="#FFFFFF" d="M26.61,172.26c0.5,0,0.93,0.12,1.36,0.37c0.42,0.23,0.72,0.521,0.96,0.93l-2.35,1.351h-0.01v-2.65
				C26.58,172.26,26.6,172.26,26.61,172.26z"/>
			<path fill="#FFFFFF" d="M118.81,12.78c-0.04-0.06-0.07-0.11-0.09-0.17l2.35-1.36h0.02v0.03v2.73c-0.44,0-0.83-0.1-1.22-0.3
				C119.42,13.49,119.09,13.2,118.81,12.78z"/>
			<path fill="#FFFFFF" d="M215.58,65.78l-2.35,1.36c-0.23-0.41-0.351-0.83-0.351-1.31c0-0.51,0.13-0.93,0.38-1.38L215.58,65.78z"/>
			<path fill="#FFFFFF" d="M121.1,123.09h-0.01v-2.75l1.2,0.69l0.87,0.51l0.32,0.18c-0.011,0-0.011,0.011-0.011,0.011
				c-0.25,0.43-0.56,0.739-0.989,0.989C122.03,122.98,121.61,123.09,121.1,123.09z"/>
		</g>
		<g>
			<line fill="none" stroke="#B5B5B7" stroke-width="2.0126" stroke-miterlimit="10" x1="29" y1="67.18" x2="118.74" y2="118.99"/>
			
				<line fill="none" stroke="#B5B5B7" stroke-width="2.0126" stroke-miterlimit="10" x1="28.93" y1="173.56" x2="118.73" y2="121.7"/>
			
				<line fill="none" stroke="#B5B5B7" stroke-width="2.0126" stroke-miterlimit="10" x1="121.09" y1="226.81" x2="121.09" y2="123.09"/>
			
				<line fill="none" stroke="#B5B5B7" stroke-width="2.0126" stroke-miterlimit="10" x1="213.27" y1="173.57" x2="123.48" y2="121.72"/>
			
				<line fill="none" stroke="#B5B5B7" stroke-width="2.0126" stroke-miterlimit="10" x1="213.23" y1="67.14" x2="123.46" y2="118.97"/>
			
				<line fill="none" stroke="#B5B5B7" stroke-width="2.0126" stroke-miterlimit="10" x1="121.09" y1="14.01" x2="121.09" y2="117.61"/>
			<path fill="none" stroke="#B5B5B7" stroke-width="2.0126" stroke-miterlimit="10" d="M123.48,121.72
				c-0.011,0-0.011,0.011-0.011,0.011c-0.25,0.43-0.56,0.739-0.989,0.989c-0.45,0.261-0.87,0.37-1.381,0.37h-0.01
				c-0.51,0-0.92-0.109-1.35-0.37c-0.45-0.25-0.76-0.56-1-0.989c-0.01-0.011-0.01-0.021-0.01-0.03c-0.26-0.44-0.37-0.85-0.37-1.35
				c0-0.51,0.11-0.93,0.38-1.36c0.24-0.45,0.55-0.76,1-1c0.43-0.27,0.84-0.38,1.35-0.38h0.01c0.511,0,0.931,0.11,1.381,0.38
				c0.42,0.24,0.729,0.54,0.979,0.98c0,0.01,0.01,0.01,0.01,0.02c0.261,0.43,0.37,0.85,0.37,1.36
				C123.84,120.86,123.73,121.27,123.48,121.72z"/>
			
				<line fill="none" stroke="#000000" stroke-width="3.9969" stroke-miterlimit="10" x1="28.94" y1="64.42" x2="118.72" y2="12.61"/>
			
				<line fill="none" stroke="#000000" stroke-width="3.9969" stroke-miterlimit="10" x1="26.57" y1="172.26" x2="26.55" y2="68.58"/>
			<line fill="none" stroke="#000000" stroke-width="3.9969" stroke-miterlimit="10" x1="118.75" y1="228.19" x2="29" y2="176.34"/>
			
				<line fill="none" stroke="#000000" stroke-width="3.9969" stroke-miterlimit="10" x1="213.21" y1="176.3" x2="123.45" y2="228.14"/>
			
				<line fill="none" stroke="#000000" stroke-width="3.9969" stroke-miterlimit="10" x1="215.61" y1="68.57" x2="215.59" y2="172.24"/>
			
				<line fill="none" stroke="#000000" stroke-width="3.9969" stroke-miterlimit="10" x1="123.46" y1="12.63" x2="213.26" y2="64.45"/>
			<path fill="none" stroke="#000000" stroke-width="2.0126" stroke-miterlimit="10" d="M118.72,12.61
				c-0.22-0.38-0.33-0.74-0.36-1.18c-0.03-0.51,0.07-0.94,0.28-1.39c0.24-0.45,0.53-0.79,0.95-1.07c0.41-0.28,0.83-0.41,1.34-0.45
				c0.5-0.01,0.95,0.07,1.39,0.3c0.449,0.21,0.779,0.51,1.06,0.94c0.271,0.42,0.41,0.84,0.45,1.35c0.03,0.49-0.07,0.93-0.28,1.37
				c-0.03,0.05-0.06,0.1-0.09,0.15c-0.22,0.38-0.49,0.67-0.86,0.92c-0.409,0.28-0.83,0.42-1.34,0.45c-0.06,0-0.109,0.01-0.17,0.01
				c-0.44,0-0.83-0.1-1.22-0.3c-0.45-0.22-0.78-0.51-1.06-0.93C118.77,12.72,118.74,12.67,118.72,12.61z"/>
			<path fill="none" stroke="#000000" stroke-width="2.0126" stroke-miterlimit="10" d="M213.26,64.45c0.24-0.43,0.55-0.74,1-0.99
				c0.431-0.26,0.87-0.37,1.36-0.37c0.51,0,0.93,0.11,1.38,0.37c0.43,0.25,0.74,0.56,1,0.99c0.25,0.45,0.36,0.87,0.36,1.38
				c0,0.5-0.11,0.93-0.36,1.36c-0.26,0.45-0.57,0.76-1,1.01c-0.45,0.24-0.87,0.37-1.38,0.37h-0.01c-0.49,0-0.92-0.13-1.351-0.37
				c-0.45-0.25-0.76-0.56-1-1.01c-0.01-0.02-0.02-0.03-0.029-0.05c-0.23-0.41-0.351-0.83-0.351-1.31
				C212.88,65.32,213.01,64.9,213.26,64.45z"/>
			<path fill="none" stroke="#000000" stroke-width="2.0126" stroke-miterlimit="10" d="M215.59,172.24c0.01,0,0.01,0,0.021,0
				c0.51,0,0.93,0.109,1.359,0.38c0.45,0.24,0.761,0.55,1,1c0.271,0.43,0.37,0.85,0.37,1.36c0,0.51-0.1,0.93-0.37,1.38
				c-0.239,0.43-0.55,0.739-1,0.989c-0.43,0.261-0.85,0.37-1.359,0.37c-0.511,0-0.931-0.109-1.38-0.37
				c-0.431-0.25-0.74-0.56-0.99-0.989c-0.01-0.021-0.021-0.04-0.03-0.061c-0.24-0.43-0.34-0.83-0.34-1.319
				c0-0.511,0.11-0.931,0.37-1.36c0.01-0.021,0.02-0.04,0.029-0.05c0.25-0.42,0.551-0.721,0.961-0.95
				C214.67,172.35,215.09,172.24,215.59,172.24z"/>
			<path fill="none" stroke="#000000" stroke-width="2.0126" stroke-miterlimit="10" d="M123.45,228.14
				c0.01,0.011,0.02,0.03,0.03,0.051c0.25,0.43,0.38,0.869,0.38,1.359c0,0.51-0.13,0.931-0.38,1.38c-0.24,0.431-0.551,0.74-1,1
				c-0.431,0.25-0.87,0.36-1.36,0.36c-0.51,0-0.93-0.11-1.38-0.36c-0.43-0.26-0.74-0.569-0.99-1c-0.26-0.449-0.37-0.87-0.37-1.38
				c0-0.49,0.11-0.93,0.37-1.359c0.25-0.45,0.56-0.761,0.99-1.011c0.44-0.239,0.85-0.359,1.35-0.37c0.01,0,0.021,0,0.03,0
				c0.49,0,0.93,0.131,1.36,0.37C122.91,227.42,123.21,227.72,123.45,228.14z"/>
			<path fill="none" stroke="#000000" stroke-width="2.0126" stroke-miterlimit="10" d="M28.99,176.34c0,0.01,0,0.021-0.01,0.03
				c-0.25,0.439-0.56,0.75-1.01,1.01c-0.43,0.25-0.86,0.36-1.36,0.36c-0.51,0-0.92-0.11-1.37-0.36c-0.44-0.26-0.75-0.57-0.99-1.01
				c-0.27-0.44-0.37-0.86-0.37-1.37c0-0.5,0.1-0.93,0.35-1.36c0.26-0.449,0.57-0.76,1.01-1.01c0.44-0.24,0.84-0.36,1.33-0.37
				c0.01,0,0.03,0,0.04,0c0.5,0,0.93,0.12,1.36,0.37c0.42,0.23,0.72,0.521,0.96,0.93c0.02,0.03,0.03,0.051,0.05,0.08
				c0.25,0.431,0.37,0.86,0.37,1.36s-0.11,0.91-0.35,1.34H28.99z"/>
			<path fill="none" stroke="#000000" stroke-width="2.0126" stroke-miterlimit="10" d="M29,67.18c0,0.01-0.01,0.03-0.02,0.04
				c-0.25,0.43-0.56,0.74-0.99,0.99c-0.45,0.27-0.87,0.37-1.38,0.37c-0.02,0-0.04,0-0.06,0c-0.48-0.01-0.88-0.11-1.3-0.37
				c-0.45-0.25-0.76-0.56-1-0.99c-0.27-0.45-0.37-0.86-0.37-1.37c0-0.51,0.1-0.93,0.37-1.37c0.24-0.44,0.55-0.75,1-1
				c0.44-0.26,0.85-0.37,1.36-0.37c0.51,0,0.93,0.11,1.38,0.37c0.41,0.24,0.71,0.53,0.95,0.94c0.02,0.02,0.03,0.04,0.04,0.06
				c0.26,0.44,0.37,0.86,0.37,1.37C29.35,66.34,29.25,66.75,29,67.18z"/>
		</g>
	</g>
</g>
<g id="Layer_2">
</g>
</svg>
