<?xml version="1.0" encoding="utf-8"?>
<!-- Generator: Adobe Illustrator 16.0.0, SVG Export Plug-In . SVG Version: 6.00 Build 0)  -->
<!DOCTYPE svg PUBLIC "-//W3C//DTD SVG 1.1//EN" "http://www.w3.org/Graphics/SVG/1.1/DTD/svg11.dtd">
<svg version="1.1" id="Layer_1" xmlns="http://www.w3.org/2000/svg" xmlns:xlink="http://www.w3.org/1999/xlink" x="0px" y="0px"
	 width="240px" height="80px" viewBox="0 0 240 80" enable-background="new 0 0 240 80" xml:space="preserve">
<rect fill="#E67E22" width="240" height="80"/>
<g enable-background="new    ">
	<path fill="#ECF0F1" d="M21.624,24.67h6.48c5.004,0,8.606,1.193,10.808,3.579s3.302,6.285,3.302,11.699
		c0,5.428-1.101,9.342-3.302,11.741c-2.201,2.4-5.804,3.6-10.808,3.6h-6.48V24.67z M27.674,30.125v19.708h1.641
		c2.379,0,4.074-0.748,5.086-2.246c1.012-1.496,1.518-4.043,1.518-7.639c0-3.568-0.506-6.098-1.518-7.588s-2.707-2.235-5.086-2.235
		H27.674z"/>
	<path fill="#ECF0F1" d="M66.618,55.289H47.546V24.67h19.072v5.332H53.596v6.604h11.792v5.332H53.596v8.02h13.022V55.289z"/>
	<path fill="#ECF0F1" d="M72.709,24.67h8.306c4.225,0,7.263,0.752,9.116,2.256s2.779,3.944,2.779,7.321s-0.926,5.817-2.779,7.321
		c-1.853,1.504-4.891,2.256-9.116,2.256h-2.256v11.465h-6.05V24.67z M78.759,29.756v8.982h2.481c1.982,0,3.374-0.335,4.173-1.005
		s1.2-1.832,1.2-3.486s-0.4-2.816-1.2-3.486s-2.191-1.005-4.173-1.005H78.759z"/>
	<path fill="#ECF0F1" d="M116.842,54.406c-0.957,0.492-1.962,0.861-3.015,1.107s-2.16,0.369-3.322,0.369
		c-4.129,0-7.28-1.359-9.454-4.08S97.79,45.15,97.79,40.01c0-5.154,1.087-9.092,3.261-11.812s5.325-4.081,9.454-4.081
		c1.162,0,2.276,0.123,3.343,0.369s2.064,0.615,2.994,1.107v6.727c-1.039-0.957-2.047-1.657-3.025-2.102s-1.986-0.667-3.025-0.667
		c-2.215,0-3.886,0.879-5.014,2.636s-1.692,4.364-1.692,7.823c0,3.445,0.564,6.046,1.692,7.804c1.128,1.756,2.799,2.635,5.014,2.635
		c1.039,0,2.047-0.223,3.025-0.666c0.978-0.445,1.986-1.146,3.025-2.104V54.406z"/>
	<path fill="#ECF0F1" d="M121.846,40.01c0-5.236,0.906-9.194,2.717-11.874c1.812-2.68,4.488-4.02,8.029-4.02
		c3.555,0,6.238,1.34,8.049,4.02c1.812,2.68,2.718,6.638,2.718,11.874c0,5.222-0.906,9.173-2.718,11.853
		c-1.811,2.68-4.494,4.02-8.049,4.02c-3.541,0-6.217-1.34-8.029-4.02C122.752,49.184,121.846,45.232,121.846,40.01z M132.592,29.551
		c-1.545,0-2.673,0.824-3.384,2.472s-1.066,4.31-1.066,7.987c0,3.664,0.355,6.32,1.066,7.968c0.711,1.646,1.839,2.471,3.384,2.471
		c1.559,0,2.693-0.824,3.404-2.471c0.711-1.648,1.066-4.305,1.066-7.968c0-3.678-0.355-6.34-1.066-7.987
		S134.15,29.551,132.592,29.551z"/>
	<path fill="#ECF0F1" d="M147.686,24.67h6.501l8.531,22.251V24.67h5.332v30.619h-6.46l-8.572-22.251v22.251h-5.332V24.67z"/>
	<path fill="#ECF0F1" d="M207.076,41.59h-3.24v-5.333h3.24c1.504,0,2.669-0.297,3.497-0.893c0.826-0.594,1.24-1.432,1.24-2.512
		c0-1.135-0.414-2.02-1.24-2.656c-0.828-0.635-1.993-0.953-3.497-0.953c-1.148,0-2.379,0.144-3.691,0.431s-2.673,0.704-4.081,1.251
		v-5.496c1.408-0.424,2.796-0.748,4.163-0.975c1.367-0.225,2.68-0.338,3.938-0.338c3.227,0,5.742,0.704,7.547,2.112
		s2.707,3.35,2.707,5.824c0,1.818-0.52,3.306-1.559,4.46c-1.039,1.156-2.522,1.911-4.45,2.267c2.188,0.383,3.855,1.255,5.004,2.615
		c1.148,1.361,1.723,3.148,1.723,5.363c0,2.967-0.95,5.229-2.851,6.787s-4.662,2.338-8.285,2.338c-1.545,0-3.065-0.129-4.563-0.389
		c-1.496-0.26-2.929-0.637-4.296-1.129v-5.619c1.285,0.643,2.673,1.133,4.163,1.467c1.49,0.336,3.056,0.502,4.696,0.502
		s2.939-0.379,3.896-1.137c0.957-0.76,1.436-1.781,1.436-3.066c0-1.572-0.479-2.785-1.436-3.641
		C210.18,42.018,208.826,41.59,207.076,41.59z"/>
</g>
</svg>
