<?xml version="1.0" encoding="utf-8"?>
<!-- Generator: Adobe Illustrator 16.0.0, SVG Export Plug-In . SVG Version: 6.00 Build 0)  -->
<!DOCTYPE svg PUBLIC "-//W3C//DTD SVG 1.1//EN" "http://www.w3.org/Graphics/SVG/1.1/DTD/svg11.dtd">
<svg version="1.1" id="Layer_1" xmlns="http://www.w3.org/2000/svg" xmlns:xlink="http://www.w3.org/1999/xlink" x="0px" y="0px"
	 width="240px" height="80px" viewBox="0 0 240 80" enable-background="new 0 0 240 80" xml:space="preserve">
<rect fill="#C0392B" width="240" height="80"/>
<g enable-background="new    ">
	<path fill="#ECF0F1" d="M21.265,24.67h6.48c5.004,0,8.606,1.193,10.808,3.579s3.302,6.285,3.302,11.699
		c0,5.428-1.101,9.342-3.302,11.741c-2.201,2.4-5.804,3.6-10.808,3.6h-6.48V24.67z M27.315,30.125v19.708h1.641
		c2.379,0,4.074-0.748,5.086-2.246c1.012-1.496,1.518-4.043,1.518-7.639c0-3.568-0.506-6.098-1.518-7.588s-2.707-2.235-5.086-2.235
		H27.315z"/>
	<path fill="#ECF0F1" d="M66.259,55.289H47.187V24.67h19.072v5.332H53.237v6.604h11.792v5.332H53.237v8.02h13.022V55.289z"/>
	<path fill="#ECF0F1" d="M72.35,24.67h8.306c4.225,0,7.263,0.752,9.116,2.256s2.779,3.944,2.779,7.321s-0.926,5.817-2.779,7.321
		c-1.853,1.504-4.891,2.256-9.116,2.256H78.4v11.465h-6.05V24.67z M78.4,29.756v8.982h2.481c1.982,0,3.374-0.335,4.173-1.005
		s1.2-1.832,1.2-3.486s-0.4-2.816-1.2-3.486s-2.191-1.005-4.173-1.005H78.4z"/>
	<path fill="#ECF0F1" d="M116.483,54.406c-0.957,0.492-1.962,0.861-3.015,1.107s-2.16,0.369-3.322,0.369
		c-4.129,0-7.28-1.359-9.454-4.08s-3.261-6.652-3.261-11.792c0-5.154,1.087-9.092,3.261-11.812s5.325-4.081,9.454-4.081
		c1.162,0,2.276,0.123,3.343,0.369s2.064,0.615,2.994,1.107v6.727c-1.039-0.957-2.047-1.657-3.025-2.102s-1.986-0.667-3.025-0.667
		c-2.215,0-3.886,0.879-5.014,2.636s-1.692,4.364-1.692,7.823c0,3.445,0.564,6.046,1.692,7.804c1.128,1.756,2.799,2.635,5.014,2.635
		c1.039,0,2.047-0.223,3.025-0.666c0.978-0.445,1.986-1.146,3.025-2.104V54.406z"/>
	<path fill="#ECF0F1" d="M121.486,40.01c0-5.236,0.906-9.194,2.717-11.874c1.812-2.68,4.488-4.02,8.029-4.02
		c3.555,0,6.238,1.34,8.049,4.02c1.812,2.68,2.719,6.638,2.719,11.874c0,5.222-0.906,9.173-2.719,11.853
		c-1.811,2.68-4.494,4.02-8.049,4.02c-3.541,0-6.217-1.34-8.029-4.02C122.393,49.184,121.486,45.232,121.486,40.01z M132.232,29.551
		c-1.545,0-2.672,0.824-3.383,2.472s-1.066,4.31-1.066,7.987c0,3.664,0.355,6.32,1.066,7.968c0.711,1.646,1.838,2.471,3.383,2.471
		c1.559,0,2.693-0.824,3.404-2.471c0.711-1.648,1.066-4.305,1.066-7.968c0-3.678-0.355-6.34-1.066-7.987
		S133.791,29.551,132.232,29.551z"/>
	<path fill="#ECF0F1" d="M147.326,24.67h6.502l8.531,22.251V24.67h5.332v30.619h-6.461l-8.572-22.251v22.251h-5.332V24.67z"/>
	<path fill="#ECF0F1" d="M199.314,49.957h6.768V30.084l-6.297,1.559v-5.455l6.338-1.518h5.844v25.287h6.768v5.332h-19.42V49.957z"/>
</g>
</svg>
